<svg id="Layer_1" data-name="Layer 1" xmlns="http://www.w3.org/2000/svg" viewBox="0 0 929.26 269.27"><defs><style>.cls-1{fill:#1d98db;}.cls-2{fill:#006196;}</style></defs><title>logo</title><path class="cls-1" d="M758.16,427.73v43.33H747.6V446.62l-10.06,24.44H729.7l-10.06-24.44v24.44H709.09V427.73h12.09l12.47,29.88,12.41-29.88Z" transform="translate(-199.74 -202.27)"/><path class="cls-1" d="M767.41,471.06V427.73H778v43.33Z" transform="translate(-199.74 -202.27)"/><path class="cls-1" d="M815.44,427.6H826v43.46H815.44l-17.65-27.34v27.34H787.23V427.6h10.56L815.44,455Z" transform="translate(-199.74 -202.27)"/><path class="cls-1" d="M862.54,427.73h10.55v43.33H862.54v-18H845.81v18H835.25V427.73h10.56v17.35h16.73Z" transform="translate(-199.74 -202.27)"/><path class="cls-1" d="M928.15,427.73H938.7v43.33H928.15v-18H911.42v18H900.87V427.73h10.55v17.35h16.73Z" transform="translate(-199.74 -202.27)"/><path class="cls-1" d="M951.88,465.2a22.85,22.85,0,0,1,0-31.82,21.81,21.81,0,0,1,15.8-6.27,21.59,21.59,0,0,1,15.74,6.27,23,23,0,0,1,0,31.82,22.88,22.88,0,0,1-31.51,0ZM976,458.35a14.76,14.76,0,0,0,0-18.15,11.9,11.9,0,0,0-16.66,0,14.76,14.76,0,0,0,0,18.15,11.93,11.93,0,0,0,16.66,0Z" transform="translate(-199.74 -202.27)"/><path class="cls-1" d="M1024.13,471.06l-2.41-7.28h-15.55l-2.41,7.28H992.53l15.06-43.46h12.84l15,43.46Zm-3-53.08v7.28L1006.29,419v-8.22Zm-12.35,37.77h10.25l-5.13-15.43Z" transform="translate(-199.74 -202.27)"/><path class="cls-1" d="M1068.82,427.6h10.55v43.46h-10.55l-17.65-27.34v27.34h-10.56V427.6h10.56L1068.82,455Z" transform="translate(-199.74 -202.27)"/><path class="cls-1" d="M1092.55,465.17a22.81,22.81,0,0,1,0-31.79,21.77,21.77,0,0,1,15.77-6.27,22.28,22.28,0,0,1,12.84,3.83,19.91,19.91,0,0,1,7.84,10.62h-12.59a8.3,8.3,0,0,0-7.9-4.76,11,11,0,0,0-8.55,3.4,14.76,14.76,0,0,0,0,18.15,10.79,10.79,0,0,0,8.36,3.39,9.55,9.55,0,0,0,6.14-1.88,9,9,0,0,0,3.18-5h-12.22v-8H1129v8a21.09,21.09,0,0,1-6.48,11.05,19.69,19.69,0,0,1-6.27,4,20.52,20.52,0,0,1-7.93,1.54A21.77,21.77,0,0,1,1092.55,465.17Z" transform="translate(-199.74 -202.27)"/><path class="cls-1" d="M714,385.27v12.34h-3V368.13h9c3.31,0,5.81.79,7.52,2.37a7.82,7.82,0,0,1,2.57,6,8.48,8.48,0,0,1-2,5.88,9.37,9.37,0,0,1-6,2.76l8.37,12.47h-3.89l-8-12.34Zm0-14.71v12.27h6q7.05,0,7-6.13t-7-6.14Z" transform="translate(-199.74 -202.27)"/><path class="cls-1" d="M769.37,368.13v2.43h-12v11h10.72V384H757.36v11.24h12v2.39h-15V368.13Z" transform="translate(-199.74 -202.27)"/><path class="cls-1" d="M813.6,397.61l-2.48-6.88H797.36l-2.52,6.88h-3l10.85-29.48h3.08l10.81,29.48Zm-15.39-9.27h12l-6-16.49Z" transform="translate(-199.74 -202.27)"/><path class="cls-1" d="M839.66,368.13h3V395.3h10.72v2.31H839.66Z" transform="translate(-199.74 -202.27)"/><path class="cls-1" d="M920.47,368.13v2.43h-12v11h10.73V384H908.46v11.24h12v2.39h-15V368.13Z" transform="translate(-199.74 -202.27)"/><path class="cls-1" d="M946,375.9a4.37,4.37,0,0,0,.91,2.87,5.56,5.56,0,0,0,2.38,1.65,25.61,25.61,0,0,0,3.2.91c1.17.26,2.34.54,3.5.86a15.84,15.84,0,0,1,3.21,1.22,5.82,5.82,0,0,1,2.37,2.28,7.23,7.23,0,0,1,.92,3.8,8.09,8.09,0,0,1-2.52,5.9,9.32,9.32,0,0,1-6.9,2.52,11.94,11.94,0,0,1-7.12-2,6.2,6.2,0,0,1-2.73-5.3h3.16a4.79,4.79,0,0,0,1.75,3.39,7.13,7.13,0,0,0,4.72,1.35,7.33,7.33,0,0,0,5-1.62,5.16,5.16,0,0,0,1.86-4A4.16,4.16,0,0,0,958,386.1a10.27,10.27,0,0,0-4.12-1.69c-1.61-.31-3.22-.68-4.83-1.09a8.51,8.51,0,0,1-4.12-2.41,7.3,7.3,0,0,1-1.71-5.22,7.14,7.14,0,0,1,2.54-5.64,9.84,9.84,0,0,1,6.71-2.22,10.21,10.21,0,0,1,6.56,1.92,8,8,0,0,1,2.9,5.13h-3.37a4.55,4.55,0,0,0-1.8-3.14,6.73,6.73,0,0,0-4.44-1.35,7,7,0,0,0-4.57,1.42A4.92,4.92,0,0,0,946,375.9Z" transform="translate(-199.74 -202.27)"/><path class="cls-1" d="M984.78,370.56v-2.43h18.42v2.43h-7.73v27.05h-3V370.56Z" transform="translate(-199.74 -202.27)"/><path class="cls-1" d="M1046.92,397.61l-2.48-6.88h-13.76l-2.52,6.88h-3L1036,368.13h3.08l10.81,29.48Zm-15.39-9.27h12l-6-16.49Z" transform="translate(-199.74 -202.27)"/><path class="cls-1" d="M1071.87,370.56v-2.43h18.42v2.43h-7.73v27.05h-3V370.56Z" transform="translate(-199.74 -202.27)"/><path class="cls-1" d="M1128.2,368.13v2.43h-12v11h10.72V384h-10.72v11.24h12v2.39h-15V368.13Z" transform="translate(-199.74 -202.27)"/><path class="cls-1" d="M199.87,373.84c0-1,0-2,0-3.06,0-23.71.28-23.25,20.31-35.6,39.24-24.2,78.16-48.92,117.14-73.53C360.58,247,384.16,232.82,407,217.47c6.83-4.59,14.35-8.57,21.38-13.08,4.22-2.7,7.31-2.91,11.68-.13q54.15,34.47,108.61,68.5c26.55,16.63,53.47,32.69,79.7,49.81,11.73,7.65,23.77,14.82,35.35,22.71,3.52,2.4,5.14,5.23,5.09,9.51-.14,13-.17,26,0,39,.08,5.36-1.63,6.39-6.88,5.12Q562.42,374.76,462.77,351c-3.71-.9-7.55-1.57-11.06-3-17.16-7-33.06.5-49.17,4.29-42.88,10.06-85.68,20.5-128.51,30.8-22.27,5.35-44.58,10.6-66.8,16.17-5.38,1.35-7.66.28-7.42-5.54C200.07,387.11,199.87,380.47,199.87,373.84Z" transform="translate(-199.74 -202.27)"/><path class="cls-1" d="M614.56,417.27c-55.53-13-111.29-25-166.6-39-6.46-1.63-13.08-3.83-20.27-2.16-40.2,9.34-80.47,18.34-120.7,27.56Q253.35,416,199.74,428.47v43.07H669.89V430.15Q642.22,423.72,614.56,417.27Z" transform="translate(-199.74 -202.27)"/><path class="cls-2" d="M434.32,375.61a24.28,24.28,0,0,0-6.63.53c-40.2,9.35-80.47,18.35-120.7,27.57Q253.35,416,199.74,428.47v43.07H434.32Z" transform="translate(-199.74 -202.27)"/><path class="cls-2" d="M434.32,202.29a11.1,11.1,0,0,0-5.92,2.1c-7,4.51-14.55,8.49-21.38,13.08-22.86,15.35-46.44,29.49-69.69,44.18-39,24.61-77.9,49.33-117.14,73.53-20,12.35-20.31,11.89-20.31,35.6,0,1,0,2,0,3.06,0,6.63.2,13.27-.06,19.89-.24,5.82,2,6.89,7.42,5.54,22.22-5.57,44.53-10.82,66.8-16.17,42.83-10.3,85.63-20.74,128.51-30.8,10.54-2.48,21-6.47,31.78-7Z" transform="translate(-199.74 -202.27)"/></svg>