<svg id="Layer_2" data-name="Layer 2" xmlns="http://www.w3.org/2000/svg" viewBox="0 0 217.93 53.8"><defs><style>.cls-1{fill:#1d98db;}</style></defs><title>minhhoang</title><path class="cls-1" d="M599.4,389v22.49h-5.48V398.77l-5.22,12.69h-4.07l-5.22-12.69v12.69h-5.48V389h6.28l6.47,15.5,6.44-15.5Z" transform="translate(-573.93 -357.88)"/><path class="cls-1" d="M604.2,411.46V389h5.48v22.49Z" transform="translate(-573.93 -357.88)"/><path class="cls-1" d="M629.12,388.9h5.48v22.56h-5.48L620,397.27v14.19h-5.48V388.9H620l9.16,14.2Z" transform="translate(-573.93 -357.88)"/><path class="cls-1" d="M653.57,389H659v22.49h-5.47v-9.33h-8.69v9.33h-5.47V389h5.47v9h8.69Z" transform="translate(-573.93 -357.88)"/><path class="cls-1" d="M687.62,389h5.47v22.49h-5.47v-9.33h-8.68v9.33h-5.48V389h5.48v9h8.68Z" transform="translate(-573.93 -357.88)"/><path class="cls-1" d="M699.93,408.41a11.87,11.87,0,0,1,0-16.51,11.33,11.33,0,0,1,8.2-3.25,11.2,11.2,0,0,1,8.17,3.25,11.91,11.91,0,0,1,0,16.51,11.87,11.87,0,0,1-16.36,0Zm12.5-3.55a7.69,7.69,0,0,0,0-9.42,6.19,6.19,0,0,0-8.65,0,7.66,7.66,0,0,0,0,9.42,6.19,6.19,0,0,0,8.65,0Z" transform="translate(-573.93 -357.88)"/><path class="cls-1" d="M737.43,411.46l-1.25-3.78h-8.07l-1.25,3.78H721l7.81-22.56h6.67l7.78,22.56Zm-1.54-27.55v3.78l-7.72-3.24v-4.26Zm-6.41,19.6h5.32l-2.66-8Z" transform="translate(-573.93 -357.88)"/><path class="cls-1" d="M760.62,388.9h5.48v22.56h-5.48l-9.16-14.19v14.19H746V388.9h5.48l9.16,14.2Z" transform="translate(-573.93 -357.88)"/><path class="cls-1" d="M772.94,408.4a11.83,11.83,0,0,1,0-16.5,11.29,11.29,0,0,1,8.18-3.25,11.61,11.61,0,0,1,6.67,2,10.36,10.36,0,0,1,4.06,5.52h-6.53a4.3,4.3,0,0,0-4.1-2.47,5.75,5.75,0,0,0-4.44,1.76,7.69,7.69,0,0,0,0,9.42,5.63,5.63,0,0,0,4.34,1.76,4.92,4.92,0,0,0,3.19-1A4.72,4.72,0,0,0,786,403h-6.34v-4.16h12.23V403a10.92,10.92,0,0,1-3.36,5.74,10.37,10.37,0,0,1-3.25,2.08,10.73,10.73,0,0,1-4.12.8A11.29,11.29,0,0,1,772.94,408.4Z" transform="translate(-573.93 -357.88)"/><path class="cls-1" d="M576.47,366.93v6.41h-1.55V358h4.68a5.55,5.55,0,0,1,3.9,1.23,4,4,0,0,1,1.33,3.11,4.36,4.36,0,0,1-1,3.05,4.76,4.76,0,0,1-3.1,1.43l4.34,6.48h-2l-4.14-6.41Zm0-7.63v6.37h3.13c2.44,0,3.66-1.07,3.66-3.19s-1.22-3.18-3.66-3.18Z" transform="translate(-573.93 -357.88)"/><path class="cls-1" d="M605.21,358v1.26H599V365h5.57v1.24H599v5.84h6.23v1.24h-7.78V358Z" transform="translate(-573.93 -357.88)"/><path class="cls-1" d="M628.17,373.34l-1.29-3.57h-7.14l-1.31,3.57h-1.55l5.63-15.3h1.6l5.61,15.3Zm-8-4.81h6.24L623.31,360Z" transform="translate(-573.93 -357.88)"/><path class="cls-1" d="M641.7,358h1.55v14.1h5.57v1.2H641.7Z" transform="translate(-573.93 -357.88)"/><path class="cls-1" d="M683.63,358v1.26H677.4V365H683v1.24H677.4v5.84h6.23v1.24h-7.78V358Z" transform="translate(-573.93 -357.88)"/><path class="cls-1" d="M696.9,362.07a2.24,2.24,0,0,0,.47,1.49,2.76,2.76,0,0,0,1.23.85,11.8,11.8,0,0,0,1.67.48c.6.13,1.21.28,1.81.44a8.66,8.66,0,0,1,1.67.64,3,3,0,0,1,1.23,1.18,3.77,3.77,0,0,1,.48,2,4.23,4.23,0,0,1-1.31,3.06,4.87,4.87,0,0,1-3.58,1.31,6.28,6.28,0,0,1-3.7-1,3.25,3.25,0,0,1-1.42-2.75h1.65a2.49,2.49,0,0,0,.9,1.76,4.51,4.51,0,0,0,5-.15,2.67,2.67,0,0,0,1-2.09,2.16,2.16,0,0,0-.88-1.89,5.42,5.42,0,0,0-2.14-.87c-.84-.16-1.67-.35-2.51-.57a4.4,4.4,0,0,1-2.14-1.25,3.78,3.78,0,0,1-.89-2.71,3.69,3.69,0,0,1,1.32-2.92,5.1,5.1,0,0,1,3.48-1.16,5.33,5.33,0,0,1,3.41,1,4.13,4.13,0,0,1,1.51,2.66h-1.75a2.38,2.38,0,0,0-.94-1.63,3.53,3.53,0,0,0-2.3-.7,3.63,3.63,0,0,0-2.37.74A2.54,2.54,0,0,0,696.9,362.07Z" transform="translate(-573.93 -357.88)"/><path class="cls-1" d="M717,359.3V358h9.56v1.26h-4v14H721v-14Z" transform="translate(-573.93 -357.88)"/><path class="cls-1" d="M749.26,373.34,748,369.77h-7.14l-1.31,3.57H738L743.6,358h1.6l5.61,15.3Zm-8-4.81h6.23L744.4,360Z" transform="translate(-573.93 -357.88)"/><path class="cls-1" d="M762.21,359.3V358h9.56v1.26h-4v14h-1.53v-14Z" transform="translate(-573.93 -357.88)"/><path class="cls-1" d="M791.44,358v1.26h-6.23V365h5.56v1.24h-5.56v5.84h6.23v1.24h-7.79V358Z" transform="translate(-573.93 -357.88)"/></svg>