<svg id="Layer_2" data-name="Layer 2" xmlns="http://www.w3.org/2000/svg" viewBox="0 0 224.25 224.28"><defs><style>.cls-1{fill:#1d98db;}</style></defs><title>phone</title><path class="cls-1" d="M679.29,498c-3.28-.37-6.55-.71-9.82-1.12a107.77,107.77,0,0,1-48.27-18.35c-23-15.81-38.73-37.11-45.36-64.22-10.25-41.91,0-78.65,30.6-109.21a104.65,104.65,0,0,1,61.33-30.19c37.61-5,70.14,5.94,96.89,32.95A106.34,106.34,0,0,1,795,369.31c4.65,33.48-3.85,63.45-25.72,89.3C752.89,478,732,490.22,707.12,495.5c-5,1.06-10.1,1.41-15.16,2.09L689,498Zm4.81-211.15c-54.66.14-99,44.56-98.87,99,.15,54.65,44.65,99,99.07,98.82a99,99,0,0,0,98.77-98.92C783.06,331.21,738.54,286.72,684.1,286.85Z" transform="translate(-572 -273.72)"/><path class="cls-1" d="M643.73,323.37l21,36.39c-1.21,1.31-2.39,2.41-3.36,3.68-2.49,3.27-3.16,7.11-3.16,11.12a45.65,45.65,0,0,0,4.06,17.74c3.71,8.85,8.86,16.74,16.27,23,3.88,3.26,8.22,5.77,13.49,5.65,2.31-.06,4.6-.8,7.27-1.3l20.91,36.17a44.51,44.51,0,0,1-10.77,5.14c-6.77,2.13-13,.7-18.95-2.87-8.91-5.38-16.34-12.47-23.06-20.3a185.94,185.94,0,0,1-34.79-60.39,95.79,95.79,0,0,1-5.83-29.59c-.19-8.53,3-15.26,10.16-20C639.11,326.29,641.33,324.92,643.73,323.37Z" transform="translate(-572 -273.72)"/><path class="cls-1" d="M672,359.64c-2.35,0-3.76-.83-4.67-2.41q-10-17.24-19.9-34.5a4.56,4.56,0,0,1,1.72-6.47q5.12-3.11,10.36-6a4.66,4.66,0,0,1,6.59,1.87q10,17.13,19.82,34.32a4.67,4.67,0,0,1-1.74,6.64c-3.42,2.05-6.89,4-10.37,5.95A7.31,7.31,0,0,1,672,359.64Z" transform="translate(-572 -273.72)"/><path class="cls-1" d="M726.25,454.83a5.71,5.71,0,0,1-4.36-3.09q-6.07-10.64-12.22-21.21c-2.31-4-4.63-8-6.92-12-2-3.41-1.31-5.87,2-7.82q4.44-2.6,8.9-5.14c3.19-1.82,5.75-1.16,7.56,2q9.64,16.65,19.25,33.34c1.76,3.07,1.08,5.66-1.94,7.44s-6.24,3.65-9.39,5.41A22,22,0,0,1,726.25,454.83Z" transform="translate(-572 -273.72)"/></svg>