<svg id="Layer_1" data-name="Layer 1" xmlns="http://www.w3.org/2000/svg" viewBox="0 0 119.31 95.52"><defs><style>.cls-1{fill:#374f88;}.cls-2{fill:#dce6eb;}.cls-3{fill:#28417a;}.cls-4{fill:#96afe8;}.cls-5{fill:#566fa8;}.cls-6{fill:#566ea8;}.cls-7{fill:#97afe9;}.cls-8{fill:#97afe8;}.cls-9{fill:#284179;}.cls-10{fill:#b0c8fc;}.cls-11{fill:#294179;}.cls-12{fill:#29417a;}.cls-13{fill:#566ea5;}.cls-14{fill:#fdfdfd;}.cls-15{fill:#b1c8fb;}.cls-16{fill:#b1c7fb;}.cls-17{fill:#09255e;}</style></defs><title>social</title><path class="cls-1" d="M661.51,432.12c0-5.15,1.15-10.14,2.2-15.14.16-.78.23-1.58.44-2.34a6.51,6.51,0,0,1,1.93-3.11c1.54-1.42,1.52-1.43,1.6-3.36a7,7,0,0,1,1.16-3c1.17-2.15,2.89-3.92,4.18-6a11.21,11.21,0,0,0,1.24-2.83c.69-2.31,2.23-4.2,3.4-6.28a2,2,0,0,1,.24-.26c2-1.93,6.42-2.8,8.94-1.69a10.6,10.6,0,0,1,5.66,5.42,21.18,21.18,0,0,1,2.12,7.9,33.47,33.47,0,0,0,1.73,7.93c.31,1.09,1.18,1.3,2.16,1.29.36,0,.68-.27,1.07-.12-.17.6-.87.59-1.28,1,2.48.39,4.44,3.23,4.25,5.7-.13,1.66.47,3.3.72,5q.72,4.61,1.47,9.22a5.89,5.89,0,0,0,.21.68h-34.8a1.41,1.41,0,0,1-.27-1.17c-.18.48-.23.95-.69,1.17Z" transform="translate(-623.83 -336.59)"/><path class="cls-1" d="M636.07,432.12a11,11,0,0,1,1.12-2.88,14.61,14.61,0,0,0,1.51-6,14.9,14.9,0,0,1,2.4-7.43c1.1-1.7,3.14-2.27,5-2.88a17,17,0,0,0,4.74-1.92,1.56,1.56,0,0,1,.66-.25c.65-.09,1.53.1,1.8-.62a3.1,3.1,0,0,0-.28-2.45,19.18,19.18,0,0,1-.65-2.14,19.7,19.7,0,0,1-1.17-2.55c-.27-1-.94-1.95.18-2.93.3-.26.24-1,.27-1.5.17-3.13,3.65-6.35,6.54-6.76s6.47,1.83,7.74,4.68c.83,1.86.06,7-1.35,8.24a5.33,5.33,0,0,0-1.68,4.47c0,.53.11.93.8.84.37-.05.65.24,1,.39.57.27.52.52.13.95a9.47,9.47,0,0,0-2.06,5.12c-.53,3.22-1.34,6.4-1.79,9.64a31.37,31.37,0,0,0-.39,6Z" transform="translate(-623.83 -336.59)"/><path class="cls-1" d="M705.91,432.12c-.78-4.69-1.84-9.34-2.22-14.06a10.65,10.65,0,0,0-2.83-6.82c-.2-.21-.11-.4-.1-.64.13-1.91-1.15-3.53-1.13-5.42-1.11-.52-.94-1.73-1.34-2.61s-.65-1.59.25-2.39c.35-.31.33-1.11.36-1.7.13-3,3.75-6.29,6.51-6.66s6.18,1.65,7.65,4.46c.88,1.68.2,7.24-1.21,8.38a5.14,5.14,0,0,0-1.63,3c-.42,1.6-.19,1.75,1.19,2.49a19.11,19.11,0,0,0,5.8,1.77c.23,0,.45.15.68.21a9.06,9.06,0,0,1,6,4.59,55.64,55.64,0,0,1,5,10.94c.44,1.48,1,2.94,1.49,4.41Z" transform="translate(-623.83 -336.59)"/><path class="cls-2" d="M669.19,432.12c.22-.69.43-1.37.64-2.05h.32v2Z" transform="translate(-623.83 -336.59)"/><path class="cls-3" d="M672.08,364.88c.75-.64,1.47-1.33,2.26-1.93,5.16-3.93,10.85-4.78,16.8-2.28s9.23,7,10,13.38c.05.4.13.79.2,1.18a2.73,2.73,0,0,1,.2,2.08,16.34,16.34,0,0,1-5.46,10.7,16,16,0,0,1-3.8,2.67.47.47,0,0,1-.33-.06c-1.81-1.76-3.68-3.46-6.26-3.9a10.23,10.23,0,0,0-8.67,2.57c-.58.49-.87.62-1.43.16s-1.22-.89-1.83-1.33c-1-.21-1.51-1-2.07-1.73A17.1,17.1,0,0,1,668.2,372a18.63,18.63,0,0,1,2.94-6.22C671.41,365.41,671.6,365,672.08,364.88Z" transform="translate(-623.83 -336.59)"/><path class="cls-3" d="M636.8,347.42c3.82-4,8.45-5.34,13.73-3.84,5.09,1.45,8.22,4.95,9.43,10.12.16.7.22,1.41.33,2.12.43.43.31.95.26,1.46a13.53,13.53,0,0,1-7.48,11.13,12.63,12.63,0,0,1-8.64,1.37,3.21,3.21,0,0,1-1.44-.52,26.55,26.55,0,0,1-5.23-2.93c-.74-.15-1.12-.74-1.54-1.26a13.8,13.8,0,0,1-2.83-11.81,14.75,14.75,0,0,1,2.08-4.67A3.19,3.19,0,0,1,636.8,347.42Z" transform="translate(-623.83 -336.59)"/><path class="cls-3" d="M712.39,350.06c.31-.05.45-.32.65-.51,4-3.8,8.68-5,13.87-3.27s8.3,5.56,9.08,11.09c0,.35.12.71.18,1.06a2,2,0,0,1,.24,1.6,14.34,14.34,0,0,1-4.34,8.82,22.56,22.56,0,0,1-3.14,2.18,14.07,14.07,0,0,1-9.09,1.17c-.32-.06-.64,0-1-.09,0-.44-.35-.58-.71-.69a15.17,15.17,0,0,1-4.34-2.46,4.76,4.76,0,0,1-2.19-2,13.69,13.69,0,0,1-2.44-11.11,13.85,13.85,0,0,1,2.25-4.94A1.94,1.94,0,0,1,712.39,350.06Z" transform="translate(-623.83 -336.59)"/><path class="cls-4" d="M668.46,371.89a8.06,8.06,0,0,1-.24,2.24,16.68,16.68,0,0,0,5.57,14,10.39,10.39,0,0,1-6.2,3.27,10,10,0,0,1-10.88-7.61,9.48,9.48,0,0,1,3.36-9.83c.86-.7.53-1.6.9-2.34a.91.91,0,0,1,.16,1.26C663,371.37,666.63,370.88,668.46,371.89Z" transform="translate(-623.83 -336.59)"/><path class="cls-4" d="M709.49,355.82a14.77,14.77,0,0,0,.71,8,15.29,15.29,0,0,0,3.64,5.14,8.32,8.32,0,0,1-5.94,2.68,8.17,8.17,0,0,1-8.17-7.49,1.67,1.67,0,0,0-1-1.5,4.16,4.16,0,0,1-2.09-4,3.6,3.6,0,0,1,2.72-3,5.24,5.24,0,0,1,4,.9,8.86,8.86,0,0,1,3.72-1.23A2.7,2.7,0,0,1,709.49,355.82Z" transform="translate(-623.83 -336.59)"/><path class="cls-4" d="M695.85,388a16.71,16.71,0,0,0,5.37-10.6c.07-.71.1-1.43.15-2.14,3.87.09,7.6,3.46,8.39,7.46a9.4,9.4,0,0,1-1.68,7.34,1.6,1.6,0,0,1-1.57.81,6.15,6.15,0,0,0-5.46,2.14c-1.07,1.3-2.24,1.28-3.6.9-.46-.13-.91-.29-1.37-.44-.14-.15-.3-.33-.26-.51C696.1,391.27,695.74,389.62,695.85,388Z" transform="translate(-623.83 -336.59)"/><path class="cls-4" d="M633.63,353.19a16.2,16.2,0,0,0,.48,7.51,17.24,17.24,0,0,0,3.65,5.63c-2.85,3.82-9.29,3.61-12.22-.4a7.9,7.9,0,0,1,1-10.89c.31-.3.6-.63.89-.94A6.3,6.3,0,0,1,633.63,353.19Z" transform="translate(-623.83 -336.59)"/><path class="cls-4" d="M731.82,368.72a14.18,14.18,0,0,0,4.35-10.29,7.7,7.7,0,0,1,6.94,6.81,8.15,8.15,0,0,1-6,8.32c-1.86.5-3.63,0-5.43-.23a.43.43,0,0,1-.31-.6,3.73,3.73,0,0,0,.34-2.64A2,2,0,0,1,731.82,368.72Z" transform="translate(-623.83 -336.59)"/><path class="cls-4" d="M655.73,366.34a13.81,13.81,0,0,0,4.56-10.52,7.84,7.84,0,0,1,7,8.61,5.76,5.76,0,0,1-1.61,4,6.84,6.84,0,0,1-4.65,2.78,12,12,0,0,1-5.2-.47.34.34,0,0,1-.15-.32C656.14,369,655.77,367.69,655.73,366.34Z" transform="translate(-623.83 -336.59)"/><path class="cls-5" d="M655.73,370.46l.08.24a6.88,6.88,0,0,1-6.41,4.48,6.65,6.65,0,0,1-6.07-4.07,3.58,3.58,0,0,1-.34-1.85,3.83,3.83,0,0,1,1.64.23,13,13,0,0,0,8.5-1.44C653.94,368.91,654.9,369.62,655.73,370.46Z" transform="translate(-623.83 -336.59)"/><path class="cls-6" d="M731.33,372.85c.11.16.21.32.31.48a6.79,6.79,0,0,1-6.87,4.34,6.51,6.51,0,0,1-5.75-4.51,2,2,0,0,1-.13-1.05c.31-.5.77-.26,1.17-.19a13.76,13.76,0,0,0,8.87-1.26C729.67,371.46,730.65,372,731.33,372.85Z" transform="translate(-623.83 -336.59)"/><path class="cls-6" d="M661,371.17c.71-.34,1.42-.66,2.12-1,2.35-1.2,3.4-3.35,4.14-5.72a7.44,7.44,0,0,1,4.81.45,24.45,24.45,0,0,0-3.62,7,10.41,10.41,0,0,0-7.36,1.2c-.05-.58-.09-1-.13-1.48C661,371.46,661,371.32,661,371.17Z" transform="translate(-623.83 -336.59)"/><path class="cls-6" d="M709.49,355.82a7.44,7.44,0,0,0-5.32.59c-.28.13-.54.37-.87.11a6.68,6.68,0,0,1,9.09-6.46A18.27,18.27,0,0,0,709.49,355.82Z" transform="translate(-623.83 -336.59)"/><path class="cls-5" d="M633.63,353.19a11.57,11.57,0,0,0-6.17.91,6.77,6.77,0,0,1,8.64-6.8c.22.06.46.08.7.12A14.87,14.87,0,0,0,633.63,353.19Z" transform="translate(-623.83 -336.59)"/><path class="cls-7" d="M732.31,345.42a3,3,0,0,1,2.93-3,3.67,3.67,0,0,1,3.53,3.39,3.12,3.12,0,0,1-3.08,3A3.54,3.54,0,0,1,732.31,345.42Z" transform="translate(-623.83 -336.59)"/><path class="cls-8" d="M656.46,342.79a2.82,2.82,0,0,1,3.12-2.84,3.46,3.46,0,0,1,3.35,3.24,3.07,3.07,0,0,1-3.06,3A3.46,3.46,0,0,1,656.46,342.79Z" transform="translate(-623.83 -336.59)"/><path class="cls-8" d="M672.7,354.82a2.84,2.84,0,0,1,3,3,3.24,3.24,0,0,1-3.31,3.22,3.33,3.33,0,0,1-3.18-3.13A3.45,3.45,0,0,1,672.7,354.82Z" transform="translate(-623.83 -336.59)"/><path class="cls-8" d="M715.32,344.37a2.62,2.62,0,0,1-5.24.05,2.87,2.87,0,0,1,2.82-2.55A2.35,2.35,0,0,1,715.32,344.37Z" transform="translate(-623.83 -336.59)"/><path class="cls-8" d="M639.47,341.8c0,1.61-1.05,2.53-2.8,2.51a2.49,2.49,0,0,1-2.44-2.4,2.9,2.9,0,0,1,2.77-2.62A2.51,2.51,0,0,1,639.47,341.8Z" transform="translate(-623.83 -336.59)"/><path class="cls-9" d="M696.41,355.84a2.45,2.45,0,0,1-2.5-2.38,2.13,2.13,0,0,1,2.24-2,2.5,2.5,0,0,1,2.45,2.33A2.08,2.08,0,0,1,696.41,355.84Z" transform="translate(-623.83 -336.59)"/><path class="cls-10" d="M695.85,388a7.78,7.78,0,0,1,.32,4.17,8,8,0,0,0-.09,1.3.8.8,0,0,1-.21.05,6.43,6.43,0,0,1-3.56-2.9C693.36,389.54,694.77,389,695.85,388Z" transform="translate(-623.83 -336.59)"/><path class="cls-11" d="M656.08,336.6a2.09,2.09,0,0,1,2,2,1.74,1.74,0,0,1-1.89,1.59,2,2,0,0,1-1.89-1.92A1.73,1.73,0,0,1,656.08,336.6Z" transform="translate(-623.83 -336.59)"/><path class="cls-12" d="M733.93,341.08a1.76,1.76,0,0,1-1.83,1.67,2,2,0,0,1-2-1.87,1.66,1.66,0,0,1,1.74-1.72A2.06,2.06,0,0,1,733.93,341.08Z" transform="translate(-623.83 -336.59)"/><path class="cls-13" d="M692.31,390.59a26.68,26.68,0,0,0,3.56,2.9,7.52,7.52,0,0,1-1.34,2.23,21.92,21.92,0,0,0-2.55-5.1Z" transform="translate(-623.83 -336.59)"/><path class="cls-14" d="M681.65,380.37c0-1.28,0-2.55,0-3.83,0-.58-.08-1-.76-.83s-.92-.28-.89-.95a25.41,25.41,0,0,0,0-2.76c0-.64.19-.9.82-.8s.87-.24.83-.88a5.93,5.93,0,0,1,.24-2.25,3.54,3.54,0,0,1,2.87-2.56,5.93,5.93,0,0,1,.59-.07c3.41-.21,3.43-.17,3.33,3.21,0,.64-.2.86-.82.79-.36,0-.72,0-1.08,0-.76-.09-.81.32-.83.93s.19.86.87.87c1.93,0,1.93,0,1.75,2a5.94,5.94,0,0,0-.08.71c.06,1.34-.36,2.11-1.89,1.78-.7-.15-.62.38-.62.82,0,2.56,0,5.12,0,7.67,0,.74-.18,1-.93.94a19.24,19.24,0,0,0-2.63,0c-.66.05-.82-.2-.8-.81C681.68,383,681.65,381.69,681.65,380.37Z" transform="translate(-623.83 -336.59)"/><path class="cls-14" d="M644.28,360.11c0-1,0-2.08,0-3.12,0-.28.13-.76-.38-.68-1,.13-.88-.49-.87-1.1s0-1.12,0-1.68,0-1,.73-.86c.43.07.56-.18.53-.56a4,4,0,0,1,0-.6c.09-2.41,1.27-3.54,3.7-3.54,2,0,1.95,0,2,2,.06,1.08-.25,1.45-1.3,1.27-.59-.1-1,0-.94.79s.48.73.93.66c1.14-.18,1.48.29,1.24,1.35a4.3,4.3,0,0,0-.14,1.07c0,.93-.27,1.42-1.29,1.2-.6-.12-.72.2-.72.74,0,2,0,4.08,0,6.12,0,.6-.13.81-.78.83-2.78.08-2.78.1-2.78-2.67C644.27,360.91,644.27,360.51,644.28,360.11Z" transform="translate(-623.83 -336.59)"/><path class="cls-15" d="M655.73,370.46c-1.09-.56-2.2-1.09-2.6-2.41a14.41,14.41,0,0,0,2.6-1.71C656.32,367.71,656.65,369.08,655.73,370.46Z" transform="translate(-623.83 -336.59)"/><path class="cls-14" d="M719.12,358.93c-.52-1.1-.13-2.26-.23-3.38a.29.29,0,0,1,.37-.34c1,.19.87-.43.89-1.06.07-2.52,1.21-3.65,3.7-3.62.65,0,1.66-.34,1.89.2a5.66,5.66,0,0,1,.09,2.6c-.05.68-.68.29-1.05.38s-1-.25-1.12.52.19,1.12,1,1c1.1-.19,1.43.28,1.2,1.31a4.22,4.22,0,0,0-.13,1.06c0,1-.28,1.52-1.37,1.29-.66-.14-.67.29-.67.78,0,1.91,0,3.83,0,5.75,0,1-.32,1.22-1.22,1.14s-1.51,0-2.26,0c-.48-.25-.25-.7-.25-1.06,0-1.83-.05-3.67,0-5.5C720,359.35,719.79,359,719.12,358.93Z" transform="translate(-623.83 -336.59)"/><path class="cls-16" d="M731.33,372.85a4.51,4.51,0,0,1-2.4-2.19,22.44,22.44,0,0,0,2.89-1.94,17.29,17.29,0,0,1,.26,3.14C732,372.39,732,372.8,731.33,372.85Z" transform="translate(-623.83 -336.59)"/><path class="cls-17" d="M719.12,358.93c.74-.19,1,0,1,.87a61.53,61.53,0,0,0,.08,6.79c-.55-.23-.38-.73-.38-1.14,0-1.74-.05-3.49,0-5.23A1.2,1.2,0,0,0,719.12,358.93Z" transform="translate(-623.83 -336.59)"/></svg>