<svg id="Layer_4" data-name="Layer 4" xmlns="http://www.w3.org/2000/svg" viewBox="0 0 470.14 269.27"><defs><style>.cls-1{fill:#1d98db;}</style></defs><title>symbol</title><path class="cls-1" d="M430.87,404.84c0-1,0-2,0-3.06,0-23.71.28-23.25,20.31-35.6,39.24-24.2,78.16-48.92,117.14-73.53C591.58,278,615.16,263.82,638,248.47c6.83-4.59,14.35-8.57,21.38-13.08,4.22-2.7,7.31-2.91,11.68-.13q54.15,34.47,108.61,68.5c26.55,16.63,53.47,32.69,79.7,49.81,11.73,7.65,23.77,14.82,35.35,22.71,3.52,2.4,5.14,5.23,5.09,9.51-.14,13-.17,26,0,39,.08,5.36-1.63,6.39-6.88,5.12Q793.42,405.76,693.77,382c-3.71-.9-7.55-1.57-11.06-3-17.16-7-33.06.5-49.17,4.29-42.88,10.06-85.68,20.5-128.51,30.8-22.27,5.35-44.58,10.6-66.8,16.17-5.38,1.35-7.66.28-7.42-5.54C431.07,418.11,430.87,411.47,430.87,404.84Z" transform="translate(-430.74 -233.27)"/><path class="cls-1" d="M845.56,448.27c-55.53-13-111.29-25-166.6-39-6.46-1.63-13.08-3.83-20.27-2.16-40.2,9.34-80.47,18.34-120.7,27.56Q484.35,447,430.74,459.47v43.07H900.89V461.15Q873.22,454.72,845.56,448.27Z" transform="translate(-430.74 -233.27)"/></svg>